<svg width="500" height="500" xmlns="http://www.w3.org/2000/svg">

 <g>
  <title>Layer 1</title>
  <ellipse stroke-width="0" stroke="#000" ry="249.00003" rx="249.49999" id="svg_1" cy="249.99999" cx="250.5" fill="#945bff"/>
  <path id="svg_3" d="m203.71289,371.73219c-50.07524,-15.16627 -85.96751,-63.35681 -77.81064,-104.47206c5.14348,-25.92629 113.6579,-183.31693 123.13464,-178.5961c3.09308,1.54081 30.61766,38.23517 61.16573,81.54305c48.93479,69.37464 55.54191,82.31087 55.54191,108.74678c0,53.58451 -53.20521,97.47629 -117.08909,96.59301c-18.64222,-0.25779 -38.86638,-1.97439 -44.94256,-3.81467l0,-0.00001zm50.16973,-26.95104c1.65751,-6.93729 -2.21435,-10.32058 -11.81108,-10.32058c-21.87194,0 -52.21186,-22.32796 -58.99027,-43.41247c-7.23071,-22.49145 -26.40256,-25.16635 -29.23434,-4.07884c-5.45582,40.62811 90.84425,96.28108 100.03568,57.81188l0.00001,0z" stroke-width="0" stroke="#000" fill="#f7f7f7"/>
 </g>
</svg>